<svg xmlns="http://www.w3.org/2000/svg" width="22" height="22" viewBox="0 0 22 22">
    <g fill="#FFF" fill-rule="nonzero" opacity=".5">
        <path d="M13.844 5.94v2.396h-.032c-.811-1.187-1.982-1.78-3.513-1.78-1.343 0-2.484.448-3.424 1.345-.95.908-1.426 2.033-1.426 3.376 0 1.353.47 2.484 1.41 3.391.934.908 2.081 1.362 3.44 1.362 1.536 0 2.707-.602 3.513-1.805h.032v1.588h1.16V5.94h1.023V4.812h-1.023V3.6h-1.16v1.213H11V5.94h2.844zM5 0h12a5 5 0 0 1 5 5v12a5 5 0 0 1-5 5H5a5 5 0 0 1-5-5V5a5 5 0 0 1 5-5zm10.125 17.875h-8.25v1.128h8.25v-1.128z"/>
        <path d="M12.877 8.698c-.703-.735-1.563-1.103-2.578-1.103-1.069 0-1.952.354-2.65 1.063-.699.71-1.048 1.598-1.048 2.667 0 1.053.352 1.928 1.055 2.626.704.693 1.585 1.04 2.643 1.04 1.015 0 1.875-.363 2.578-1.088.693-.714 1.04-1.579 1.04-2.594s-.347-1.885-1.04-2.61z"/>
    </g>
</svg>
