<svg xmlns="http://www.w3.org/2000/svg" xmlns:xlink="http://www.w3.org/1999/xlink" width="50" height="18" viewBox="0 0 50 18">
    <defs>
        <path id="a" d="M.056.007h12.083v12.085H.056z"/>
    </defs>
    <g fill="none" fill-rule="evenodd">
        <path fill="#FFF" d="M2.38 14.32h-.936v2.58H.927v-2.58H0v-.42h2.38v.42zm1.07-.42l.865 2.3.863-2.3h.674v3h-.52v-.989l.052-1.323-.886 2.312h-.373l-.884-2.31.052 1.321v.989h-.52v-3h.676z"/>
        <g transform="translate(37.853 .39)">
            <mask id="b" fill="#fff">
                <use xlink:href="#a"/>
            </mask>
            <path fill="#FFF" d="M2.524.785L.056 3.256l8.804.028.03 8.808 2.473-2.475c.499-.5.778-1.177.776-1.883L12.114.203a.172.172 0 0 0-.172-.172L4.409.007a2.652 2.652 0 0 0-1.885.778" mask="url(#b)"/>
        </g>
        <path fill="#FFF" d="M8.09 6.93h2.329l1.944 7.429h.038l1.867-7.43h2.213l1.79 7.43h.039l2.02-7.43h2.234l-3.118 9.95h-2.252l-1.848-7.39h-.039l-1.828 7.39h-2.31zM30.586 11.029c-.026-.347-.1-.68-.222-1.001-.122-.32-.288-.6-.5-.837a2.485 2.485 0 0 0-.77-.578 2.272 2.272 0 0 0-1.01-.221c-.385 0-.735.067-1.05.202a2.397 2.397 0 0 0-.808.558 2.763 2.763 0 0 0-.539.838c-.134.32-.208.667-.221 1.039h5.12zm-5.12 1.444c0 .384.054.757.164 1.116.108.359.272.673.49.943.219.27.494.484.828.645.334.16.731.24 1.193.24.642 0 1.158-.138 1.55-.414.391-.275.683-.69.876-1.241h2.078a4.139 4.139 0 0 1-1.617 2.512 4.406 4.406 0 0 1-1.337.654 5.399 5.399 0 0 1-1.55.221c-.782 0-1.475-.128-2.078-.384a4.291 4.291 0 0 1-1.53-1.078 4.572 4.572 0 0 1-.944-1.655 6.726 6.726 0 0 1-.317-2.118c0-.705.112-1.376.337-2.011a5.144 5.144 0 0 1 .962-1.675c.417-.48.92-.862 1.511-1.145.59-.282 1.257-.423 2.002-.423.782 0 1.485.163 2.107.49a4.63 4.63 0 0 1 1.55 1.3c.41.539.708 1.158.895 1.857.185.7.234 1.421.144 2.166h-7.314zM41.57 11.029c-.026-.347-.1-.68-.221-1.001-.123-.32-.29-.6-.5-.837a2.484 2.484 0 0 0-.77-.578 2.272 2.272 0 0 0-1.011-.221c-.385 0-.735.067-1.05.202a2.397 2.397 0 0 0-.808.558 2.763 2.763 0 0 0-.538.838c-.135.32-.21.667-.222 1.039h5.12zm-5.12 1.444c0 .384.055.757.164 1.116.109.359.272.673.49.943.219.27.494.484.828.645.334.16.732.24 1.194.24.641 0 1.157-.138 1.549-.414.391-.275.683-.69.876-1.241h2.078a4.139 4.139 0 0 1-1.616 2.512 4.407 4.407 0 0 1-1.338.654 5.399 5.399 0 0 1-1.55.221c-.782 0-1.475-.128-2.078-.384a4.291 4.291 0 0 1-1.53-1.078 4.571 4.571 0 0 1-.943-1.655 6.723 6.723 0 0 1-.318-2.118c0-.705.112-1.376.337-2.011a5.146 5.146 0 0 1 .962-1.675 4.6 4.6 0 0 1 1.511-1.145c.59-.282 1.257-.423 2.002-.423.782 0 1.485.163 2.107.49a4.63 4.63 0 0 1 1.55 1.3c.41.539.709 1.158.895 1.857a5.7 5.7 0 0 1 .144 2.166H36.45z"/>
    </g>
</svg>
